<svg width="30" height="30" viewBox="0 0 30 30" fill="none" xmlns="http://www.w3.org/2000/svg">
<path d="M13.8799 21.4461C13.0243 22.0092 12.1364 22.4903 11.2162 22.8897C10.296 23.2892 9.32935 23.489 8.31622 23.489C7.29754 23.489 6.32153 23.3097 5.38819 22.9513C4.45505 22.5931 3.58432 22.1064 2.77599 21.4912C2.5167 21.3014 2.389 21.042 2.39291 20.713C2.39682 20.384 2.53243 20.1246 2.79974 19.9348C3.48469 19.4285 4.21385 19.0081 4.98721 18.6736C5.76078 18.339 6.56828 18.1172 7.40971 18.0083C7.23575 17.9449 7.07166 17.8678 6.91744 17.7769C6.76322 17.6858 6.61887 17.5771 6.48439 17.4506C5.36927 16.5111 4.50481 15.4035 3.89101 14.1278C3.27742 12.852 2.88837 11.496 2.72387 10.0597C2.68274 9.71673 2.78813 9.42062 3.04002 9.1714C3.29191 8.92218 3.60097 8.81814 3.96719 8.85926C5.24044 9.00649 6.45642 9.31894 7.61513 9.79662C8.77364 10.2743 9.82985 10.9227 10.7838 11.742C10.7521 11.5822 10.7283 11.4245 10.7125 11.2688C10.6967 11.1129 10.6888 10.9551 10.6888 10.7953C10.6888 9.23032 10.9968 7.74445 11.6128 6.33775C12.2289 4.93126 13.0186 3.61185 13.982 2.37952C14.1923 2.1155 14.4668 1.98544 14.8052 1.98934C15.1437 1.99325 15.4142 2.12732 15.6167 2.39155C16.5694 3.63436 17.3584 4.95604 17.9837 6.35657C18.609 7.7573 18.9217 9.2369 18.9217 10.7953C18.9217 10.9524 18.9106 11.1095 18.8884 11.2666C18.8664 11.4237 18.8355 11.5783 18.7958 11.7302C19.7623 10.9108 20.8288 10.2654 21.9953 9.79415C23.162 9.32285 24.3859 9.01122 25.667 8.85926C26.0108 8.81814 26.3122 8.91745 26.5713 9.15722C26.8306 9.39698 26.9397 9.69781 26.8986 10.0597C26.7466 11.496 26.3536 12.852 25.7194 14.1278C25.0851 15.4035 24.2103 16.5111 23.0952 17.4506C22.9607 17.5692 22.8164 17.676 22.6621 17.7708C22.5079 17.8658 22.3477 17.9449 22.1816 18.0083C23.023 18.1172 23.8273 18.341 24.5945 18.6794C25.3617 19.0181 26.0941 19.4365 26.7916 19.9348C27.0589 20.1246 27.1925 20.3794 27.1925 20.6994C27.1925 21.0194 27.0629 21.2793 26.8036 21.4791C25.9875 22.0946 25.1198 22.5834 24.2006 22.9455C23.2817 23.3078 22.309 23.489 21.2825 23.489C20.2622 23.489 19.2945 23.2872 18.3794 22.8838C17.4644 22.4806 16.5814 22.0052 15.7305 21.4579V25.6005C15.7305 25.8627 15.6418 26.0824 15.4644 26.2597C15.2869 26.4371 15.0671 26.5259 14.8049 26.5259C14.5425 26.5259 14.3228 26.4371 14.1458 26.2597C13.9685 26.0824 13.8799 25.8627 13.8799 25.6005V21.4461ZM12.3781 18.1791C12.1519 17.2947 11.8471 16.4425 11.4636 15.6225C11.0799 14.8022 10.5605 14.0829 9.90562 13.4646C9.19559 12.7938 8.40875 12.2568 7.54512 11.8536C6.68127 11.4502 5.77569 11.1472 4.82836 10.9446C5.03872 11.8685 5.35539 12.7464 5.77836 13.5784C6.20155 14.4104 6.75746 15.1538 7.44611 15.8088C8.10987 16.4637 8.86885 16.973 9.72302 17.3368C10.5772 17.7005 11.4622 17.9813 12.3781 18.1791ZM8.31005 21.6383C8.88046 21.6383 9.43648 21.5561 9.9781 21.3915C10.5199 21.227 11.0376 21.0088 11.5311 20.7367C11.0257 20.4772 10.5071 20.2502 9.97533 20.0557C9.44337 19.8612 8.89054 19.7639 8.31684 19.7639C7.74334 19.7639 7.18342 19.8532 6.63706 20.0319C6.09071 20.2106 5.5605 20.4376 5.04643 20.713C5.54796 20.9928 6.07478 21.2171 6.62689 21.3857C7.17879 21.5541 7.73985 21.6383 8.31005 21.6383ZM14.8052 17.2109C15.4348 16.2192 15.9699 15.1929 16.4103 14.1321C16.8508 13.071 17.071 11.9588 17.071 10.7953C17.071 9.6317 16.8508 8.51946 16.4103 7.45863C15.9699 6.3978 15.4348 5.38179 14.8052 4.41061C14.1597 5.38179 13.6208 6.3978 13.1884 7.45863C12.7557 8.51946 12.5394 9.6317 12.5394 10.7953C12.5394 11.9627 12.7577 13.081 13.1942 14.1503C13.6308 15.2195 14.1678 16.2398 14.8052 17.2109ZM17.2206 18.1791C18.1365 17.9813 19.0183 17.7005 19.8661 17.3368C20.7139 16.973 21.4697 16.4637 22.1335 15.8088C22.8221 15.1538 23.378 14.4104 23.8012 13.5784C24.2242 12.7464 24.5449 11.8685 24.7632 10.9446C23.8079 11.1472 22.8983 11.4481 22.0345 11.8474C21.1708 12.247 20.384 12.786 19.674 13.4646C19.011 14.0829 18.4898 14.8022 18.1102 15.6225C17.7306 16.4425 17.4341 17.2947 17.2206 18.1791ZM21.2883 21.6383C21.8586 21.6383 22.4185 21.558 22.9681 21.3974C23.518 21.2368 24.0436 21.0166 24.5449 20.7367C24.0355 20.4694 23.5099 20.2404 22.9681 20.0498C22.4265 19.8592 21.8646 19.7639 21.2825 19.7639C20.7172 19.7639 20.1654 19.8612 19.6271 20.0557C19.0887 20.2502 18.5666 20.4772 18.0605 20.7367C18.554 21.0088 19.0728 21.227 19.6169 21.3915C20.161 21.5561 20.7181 21.6383 21.2883 21.6383Z" fill="#949494"/>
</svg>
