<svg width="52" height="52" viewBox="0 0 52 52" fill="none" xmlns="http://www.w3.org/2000/svg">
<path d="M26.0043 4.33398C14.0358 4.33398 4.33398 14.0358 4.33398 26.0043C4.33398 37.9729 14.0358 47.6747 26.0043 47.6747C37.9729 47.6747 47.6747 37.9729 47.6747 26.0043C47.6747 14.0358 37.9729 4.33398 26.0043 4.33398ZM30.7783 34.3886C29.9007 35.2663 28.7846 35.8014 27.5819 35.9747V36.8395C27.5819 37.7366 26.8538 38.4648 25.9566 38.4648C25.0595 38.4648 24.3314 37.7366 24.3314 36.8395V35.9705C21.8544 35.5674 19.889 33.5717 19.5986 31.0016C19.4989 30.1088 20.1403 29.3048 21.0331 29.2051C21.9129 29.0946 22.7299 29.7469 22.8296 30.6397C22.9683 31.8749 24.0085 32.8067 25.248 32.8067H26.765C27.4108 32.8067 28.0197 32.553 28.4813 32.0914C28.9428 31.6299 29.1963 31.0209 29.1963 30.3752C29.1963 29.2591 28.4379 28.2905 27.3522 28.0153L23.8676 27.1508C22.6324 26.8366 21.5315 26.1192 20.7601 25.1245C19.9929 24.1537 19.5639 22.9098 19.5639 21.6377C19.5639 18.8184 21.6334 16.4889 24.3314 16.049V15.1692C24.3314 14.272 25.0595 13.5439 25.9566 13.5439C26.8538 13.5439 27.5819 14.272 27.5819 15.1692V16.0273C30.1043 16.3935 32.1197 18.4023 32.4122 21.0071C32.5119 21.8999 31.8705 22.7038 30.9777 22.8035C30.0762 22.9075 29.2809 22.2618 29.1812 21.369C29.0425 20.1337 28.0023 19.2019 26.7628 19.2019H25.2458C23.9045 19.2019 22.8145 20.2921 22.8145 21.6335C22.8145 22.1774 22.9943 22.706 23.3193 23.1178C23.6617 23.5598 24.1212 23.859 24.6586 23.9934L28.1432 24.8578C30.6786 25.4993 32.4469 27.7662 32.4469 30.3709C32.4447 31.8879 31.8532 33.3138 30.7783 34.3886Z" fill="url(#paint0_linear_394_710)"/>
<defs>
<linearGradient id="paint0_linear_394_710" x1="4.33398" y1="26.0043" x2="47.6747" y2="26.0043" gradientUnits="userSpaceOnUse">
<stop stop-color="#E0B973"/>
<stop offset="1" stop-color="#AE8741"/>
</linearGradient>
</defs>
</svg>
