<svg width="52" height="52" viewBox="0 0 52 52" fill="none" xmlns="http://www.w3.org/2000/svg">
<path d="M27.6298 10.8351V5.95926L37.3815 15.7109H32.5056C29.0817 15.7109 27.6298 14.259 27.6298 10.8351ZM38.8115 25.3759L25.8744 38.3998C25.2676 39.0065 24.921 39.83 24.921 40.6968V42.6905C24.921 43.0589 24.6392 43.3406 24.2708 43.3406H13.0023C8.66825 43.3406 6.50122 41.1736 6.50122 36.8395V10.8351C6.50122 6.50102 8.66825 4.33398 13.0023 4.33398H24.3793V10.8351C24.3793 16.0793 27.2614 18.9615 32.5056 18.9615H39.0067V24.9208C39.0067 25.0942 38.9415 25.2675 38.8115 25.3759ZM16.7946 32.5054C16.7946 31.6083 16.0665 30.8801 15.1694 30.8801C14.2722 30.8801 13.5441 31.6083 13.5441 32.5054C13.5441 33.4026 14.2722 34.1307 15.1694 34.1307C16.0665 34.1307 16.7946 33.4026 16.7946 32.5054ZM16.7946 23.8373C16.7946 22.9401 16.0665 22.212 15.1694 22.212C14.2722 22.212 13.5441 22.9401 13.5441 23.8373C13.5441 24.7344 14.2722 25.4626 15.1694 25.4626C16.0665 25.4626 16.7946 24.7344 16.7946 23.8373ZM25.4628 32.5054C25.4628 31.6083 24.7346 30.8801 23.8375 30.8801H20.5869C19.6898 30.8801 18.9617 31.6083 18.9617 32.5054C18.9617 33.4026 19.6898 34.1307 20.5869 34.1307H23.8375C24.7346 34.1307 25.4628 33.4026 25.4628 32.5054ZM31.9639 23.8373C31.9639 22.9401 31.2357 22.212 30.3386 22.212H20.5869C19.6898 22.212 18.9617 22.9401 18.9617 23.8373C18.9617 24.7344 19.6898 25.4626 20.5869 25.4626H30.3386C31.2357 25.4626 31.9639 24.7344 31.9639 23.8373ZM28.1716 40.6968V45.5076H32.9823L41.6504 36.8828L36.7963 32.0287L28.1716 40.6968ZM44.9444 30.8801L42.799 28.7348C42.0406 27.9763 40.827 27.9763 40.0686 28.7348L38.3131 30.5117L43.1673 35.3659L44.9444 33.6106C45.7028 32.8522 45.7028 31.6386 44.9444 30.8801Z" fill="url(#paint0_linear_394_722)"/>
<defs>
<linearGradient id="paint0_linear_394_722" x1="6.50122" y1="24.9208" x2="45.5132" y2="24.9208" gradientUnits="userSpaceOnUse">
<stop stop-color="#E0B973"/>
<stop offset="1" stop-color="#AE8741"/>
</linearGradient>
</defs>
</svg>
