<svg width="188" height="21" viewBox="0 0 188 21" fill="none" xmlns="http://www.w3.org/2000/svg">
<path d="M16.4707 3.14264H4.31759C1.93217 3.14264 -0.00012207 5.0541 -0.00012207 7.41244V13.4208C-0.00012207 15.7791 1.93321 17.6916 4.31759 17.6916H16.4707C18.8561 17.6916 20.7884 15.7791 20.7884 13.4208V7.41244C20.7884 5.0541 18.8551 3.1416 16.4707 3.1416V3.14264ZM13.5509 10.7083L7.86654 13.3906C7.83187 13.4073 7.79354 13.4149 7.75512 13.4128C7.7167 13.4107 7.67943 13.3989 7.64679 13.3785C7.61414 13.3582 7.58719 13.3299 7.56842 13.2963C7.54965 13.2627 7.53969 13.2249 7.53946 13.1864V7.65618C7.54016 7.61751 7.55063 7.57964 7.5699 7.54611C7.58918 7.51257 7.61662 7.48446 7.64969 7.46439C7.68276 7.44432 7.72037 7.43295 7.75901 7.43133C7.79766 7.42972 7.83608 7.43791 7.87071 7.45514L13.5561 10.3041C13.594 10.323 13.6258 10.3522 13.6478 10.3883C13.6698 10.4244 13.6812 10.466 13.6807 10.5083C13.6801 10.5507 13.6677 10.592 13.6447 10.6275C13.6218 10.663 13.5893 10.6914 13.5509 10.7093V10.7083Z" fill="white"/>
<path d="M49.0061 4.02604V6.88854H46.9082V10.3885H49.0061V20.7906H53.3124V10.3896H56.203C56.203 10.3896 56.4738 8.71146 56.6051 6.87604H53.3301V4.48229C53.3301 4.125 53.7988 3.64375 54.2634 3.64375H56.6113V0H53.4197C48.8988 0 49.0061 3.50312 49.0061 4.02604Z" fill="white"/>
<path d="M104.167 4.06949C103.386 4.41051 102.559 4.63411 101.712 4.73304C102.601 4.2114 103.269 3.38419 103.592 2.40595C102.75 2.89588 101.832 3.24096 100.876 3.42679C100.473 3.00513 99.9892 2.6699 99.4528 2.44156C98.9164 2.21321 98.3391 2.09654 97.7562 2.09866C95.3958 2.09866 93.4822 3.98408 93.4822 6.30699C93.4822 6.63616 93.5197 6.95804 93.5926 7.26533C91.8995 7.1848 90.2417 6.75221 88.7251 5.99516C87.2085 5.23811 85.8663 4.17322 84.7843 2.86845C84.4049 3.50845 84.2056 4.23906 84.2072 4.98304C84.2079 5.67883 84.382 6.36348 84.7138 6.97511C85.0455 7.58674 85.5244 8.10607 86.1072 8.48616C85.4296 8.46429 84.7666 8.28337 84.1718 7.95804V8.01012C84.1718 10.0497 85.6458 11.7507 87.5989 12.1382C87.2318 12.2356 86.8537 12.285 86.4739 12.2851C86.1978 12.2851 85.9301 12.2591 85.6687 12.207C85.9479 13.0486 86.4823 13.7823 87.1976 14.3063C87.913 14.8303 88.7737 15.1185 89.6603 15.131C88.1396 16.3024 86.2726 16.9352 84.353 16.9299C84.0072 16.9299 83.6676 16.9091 83.3333 16.8716C85.2929 18.1119 87.5651 18.7687 89.8843 18.7653C97.7458 18.7653 102.044 12.3518 102.044 6.79033L102.029 6.24554C102.867 5.65561 103.592 4.91829 104.167 4.06949Z" fill="white"/>
<path d="M139.601 0H131.195C129.552 0.00193028 127.977 0.655357 126.816 1.81691C125.655 2.97847 125.002 4.55328 125 6.19583V14.6021C125.002 16.2446 125.655 17.8193 126.817 18.9807C127.978 20.1421 129.553 20.7952 131.196 20.7969H139.602C141.245 20.7949 142.819 20.1415 143.981 18.98C145.142 17.8184 145.795 16.2436 145.797 14.601V6.19479C145.795 4.55224 145.141 2.97754 143.98 1.81618C142.818 0.654816 141.243 0.00165411 139.601 0V0ZM143.705 14.601C143.705 15.14 143.599 15.6737 143.393 16.1716C143.186 16.6696 142.884 17.122 142.503 17.5031C142.122 17.8842 141.669 18.1865 141.172 18.3928C140.674 18.5991 140.14 18.7052 139.601 18.7052H131.195C130.106 18.7049 129.063 18.2724 128.293 17.5028C127.524 16.7331 127.092 15.6894 127.092 14.601V6.19479C127.092 5.10648 127.524 4.06284 128.294 3.29338C129.064 2.52393 130.107 2.09167 131.196 2.09167H139.602C140.69 2.09194 141.734 2.52447 142.503 3.29412C143.273 4.06377 143.705 5.10752 143.705 6.19583V14.6021V14.601Z" fill="white"/>
<path d="M135.398 5.01953C133.972 5.02174 132.605 5.5891 131.597 6.59725C130.59 7.60539 130.022 8.97206 130.021 10.3977C130.022 11.8236 130.589 13.1907 131.597 14.1991C132.606 15.2075 133.973 15.7749 135.399 15.7768C136.825 15.7752 138.192 15.2079 139.2 14.1995C140.209 13.191 140.776 11.8238 140.778 10.3977C140.776 8.9717 140.208 7.60483 139.199 6.59682C138.191 5.58881 136.824 5.02195 135.398 5.02057V5.01953ZM135.398 13.6852C134.526 13.6852 133.69 13.3389 133.074 12.7226C132.457 12.1062 132.111 11.2703 132.111 10.3987C132.111 9.52708 132.457 8.69115 133.074 8.07482C133.69 7.45849 134.526 7.11224 135.398 7.11224C136.269 7.11224 137.105 7.45849 137.721 8.07482C138.338 8.69115 138.684 9.52708 138.684 10.3987C138.684 11.2703 138.338 12.1062 137.721 12.7226C137.105 13.3389 136.269 13.6852 135.398 13.6852Z" fill="white"/>
<path d="M140.787 6.34954C141.499 6.34954 142.076 5.77264 142.076 5.061C142.076 4.34936 141.499 3.77246 140.787 3.77246C140.076 3.77246 139.499 4.34936 139.499 5.061C139.499 5.77264 140.076 6.34954 140.787 6.34954Z" fill="white"/>
<path d="M187.457 12.2076V19.894H183.001V12.7221C183.001 10.9201 182.356 9.69089 180.744 9.69089C179.512 9.69089 178.779 10.5201 178.457 11.3211C178.34 11.6076 178.309 12.0065 178.309 12.4076V19.894H173.851C173.851 19.894 173.911 7.74818 173.851 6.4888H178.309V8.3888L178.28 8.43255H178.309V8.3888C178.901 7.47734 179.958 6.17422 182.326 6.17422C185.258 6.17422 187.457 8.09089 187.457 12.2076ZM169.189 0.0273438C167.665 0.0273438 166.667 1.02734 166.667 2.34297C166.667 3.62943 167.635 4.65964 169.13 4.65964H169.159C170.715 4.65964 171.68 3.62943 171.68 2.34297C171.653 1.02734 170.716 0.0273438 169.19 0.0273438H169.189ZM166.931 19.894H171.387V6.4888H166.931V19.894Z" fill="white"/>
</svg>
