<svg width="58" height="54" viewBox="0 0 58 54" fill="none" xmlns="http://www.w3.org/2000/svg">
<path d="M57.8229 18.0923C57.8229 17.1262 57.4421 16.1996 56.7644 15.5165C56.0867 14.8333 55.1674 14.4495 54.209 14.4495C54.209 14.4495 52.8019 14.4495 52.7032 14.469C50.9016 11.1044 48.8376 7.88945 46.5306 4.85456C45.3268 3.27676 43.6587 2.12324 41.765 1.55909C37.5222 -0.519698 20.3007 -0.519698 16.0579 1.55909C14.1642 2.12324 12.4961 3.27676 11.2923 4.85456C8.98531 7.88945 6.92128 11.1044 5.11974 14.469C5.02095 14.4495 3.61393 14.4495 3.61393 14.4495C2.65546 14.4495 1.73624 14.8333 1.0585 15.5165C0.380752 16.1996 0 17.1262 0 18.0923L0 33.8775C0.000465806 35.5822 0.445983 37.2568 1.2918 38.733C2.13761 40.2092 3.35393 41.435 4.81857 42.2874V46.02C4.81857 47.9522 5.58008 49.8053 6.93557 51.1716C8.29105 52.5379 10.1295 53.3055 12.0464 53.3055C13.9634 53.3055 15.8018 52.5379 17.1573 51.1716C18.5128 49.8053 19.2743 47.9522 19.2743 46.02V43.5915H38.5486V46.02C38.5486 47.9522 39.3101 49.8053 40.6656 51.1716C42.0211 52.5379 43.8595 53.3055 45.7765 53.3055C47.6934 53.3055 49.5318 52.5379 50.8873 51.1716C52.2428 49.8053 53.0043 47.9522 53.0043 46.02V42.2874C54.469 41.435 55.6853 40.2092 56.5311 38.733C57.3769 37.2568 57.8224 35.5822 57.8229 33.8775V18.0923ZM15.1159 7.81004C15.7061 7.04281 16.5214 6.48278 17.4456 6.20966C21.1054 4.38586 36.7199 4.38586 40.3772 6.20966C41.3015 6.48278 42.1168 7.04281 42.707 7.81004C46.3658 12.6458 49.3791 17.9447 51.6696 23.571C36.5774 21.3513 21.2455 21.3513 6.15332 23.571C8.44383 17.9447 11.4571 12.6458 15.1159 7.81004ZM14.4557 46.02C14.4557 46.6641 14.2019 47.2818 13.7501 47.7372C13.2982 48.1926 12.6854 48.4485 12.0464 48.4485C11.4075 48.4485 10.7946 48.1926 10.3428 47.7372C9.89098 47.2818 9.63715 46.6641 9.63715 46.02V43.5915H14.4557V46.02ZM48.1857 46.02C48.1857 46.6641 47.9319 47.2818 47.4801 47.7372C47.0283 48.1926 46.4154 48.4485 45.7765 48.4485C45.1375 48.4485 44.5247 48.1926 44.0728 47.7372C43.621 47.2818 43.3672 46.6641 43.3672 46.02V43.5915H48.1857V46.02ZM48.1857 38.7345H9.63715C8.35918 38.7345 7.13356 38.2228 6.2299 37.3119C5.32624 36.4011 4.81857 35.1657 4.81857 33.8775V28.6732C12.7951 27.4441 20.8437 26.7489 28.9114 26.592C36.9792 26.7489 45.0278 27.4441 53.0043 28.6732V33.8775C53.0043 35.1657 52.4966 36.4011 51.593 37.3119C50.6893 38.2228 49.4637 38.7345 48.1857 38.7345ZM14.4557 33.8775C14.4557 34.5216 14.2019 35.1393 13.7501 35.5947C13.2982 36.0502 12.6854 36.306 12.0464 36.306C11.4075 36.306 10.7946 36.0502 10.3428 35.5947C9.89098 35.1393 9.63715 34.5216 9.63715 33.8775C9.63715 33.2334 9.89098 32.6157 10.3428 32.1603C10.7946 31.7049 11.4075 31.449 12.0464 31.449C12.6854 31.449 13.2982 31.7049 13.7501 32.1603C14.2019 32.6157 14.4557 33.2334 14.4557 33.8775ZM48.1857 33.8775C48.1857 34.5216 47.9319 35.1393 47.4801 35.5947C47.0283 36.0502 46.4154 36.306 45.7765 36.306C45.1375 36.306 44.5247 36.0502 44.0728 35.5947C43.621 35.1393 43.3672 34.5216 43.3672 33.8775C43.3672 33.2334 43.621 32.6157 44.0728 32.1603C44.5247 31.7049 45.1375 31.449 45.7765 31.449C46.4154 31.449 47.0283 31.7049 47.4801 32.1603C47.9319 32.6157 48.1857 33.2334 48.1857 33.8775Z" fill="url(#paint0_linear_394_558)"/>
<defs>
<linearGradient id="paint0_linear_394_558" x1="0" y1="26.6527" x2="57.8229" y2="26.6527" gradientUnits="userSpaceOnUse">
<stop stop-color="#E0B973"/>
<stop offset="1" stop-color="#AE8741"/>
</linearGradient>
</defs>
</svg>
