<svg width="21" height="21" viewBox="0 0 21 21" fill="none" xmlns="http://www.w3.org/2000/svg">
<path d="M20.3125 18.5547L14.2539 12.4951C15.2303 11.1534 15.7555 9.53633 15.7539 7.87695C15.7539 3.53369 12.2202 0 7.87695 0C3.53369 0 0 3.53369 0 7.87695C0 12.2202 3.53369 15.7539 7.87695 15.7539C9.53633 15.7555 11.1534 15.2303 12.4951 14.2539L18.5547 20.3125L20.3125 18.5547ZM7.87695 13.2661C6.81094 13.2662 5.76884 12.9502 4.88244 12.358C3.99604 11.7658 3.30516 10.9241 2.89717 9.93922C2.48918 8.95437 2.38241 7.87065 2.59035 6.82512C2.7983 5.77958 3.31162 4.81919 4.06541 4.06541C4.81919 3.31162 5.77958 2.7983 6.82512 2.59035C7.87065 2.38241 8.95437 2.48918 9.93922 2.89717C10.9241 3.30516 11.7658 3.99604 12.358 4.88244C12.9502 5.76884 13.2662 6.81094 13.2661 7.87695C13.2644 9.30573 12.6961 10.6755 11.6858 11.6858C10.6755 12.6961 9.30573 13.2644 7.87695 13.2661Z" fill="#483E2B"/>
</svg>
