<svg width="21" height="21" viewBox="0 0 21 21" fill="none" xmlns="http://www.w3.org/2000/svg">
<path d="M14.601 0H6.19479C4.55224 0.00193028 2.97754 0.655357 1.81618 1.81691C0.654816 2.97847 0.00165411 4.55328 0 6.19583L0 14.6021C0.00193028 16.2446 0.655357 17.8193 1.81691 18.9807C2.97847 20.1421 4.55328 20.7952 6.19583 20.7969H14.6021C16.2446 20.7949 17.8193 20.1415 18.9807 18.98C20.1421 17.8184 20.7952 16.2436 20.7969 14.601V6.19479C20.7949 4.55224 20.1415 2.97754 18.98 1.81618C17.8184 0.654816 16.2436 0.00165411 14.601 0V0ZM18.7052 14.601C18.7052 15.14 18.5991 15.6737 18.3928 16.1716C18.1865 16.6696 17.8842 17.122 17.5031 17.5031C17.122 17.8842 16.6696 18.1865 16.1716 18.3928C15.6737 18.5991 15.14 18.7052 14.601 18.7052H6.19479C5.10648 18.7049 4.06284 18.2724 3.29338 17.5028C2.52393 16.7331 2.09167 15.6894 2.09167 14.601V6.19479C2.09194 5.10648 2.52447 4.06284 3.29412 3.29338C4.06377 2.52393 5.10752 2.09167 6.19583 2.09167H14.6021C15.6904 2.09194 16.734 2.52447 17.5035 3.29412C18.2729 4.06377 18.7052 5.10752 18.7052 6.19583V14.6021V14.601Z" fill="white"/>
<path d="M10.3976 5.02002C8.972 5.02222 7.60544 5.58959 6.59749 6.59773C5.58953 7.60588 5.02244 8.97255 5.02051 10.3981C5.02216 11.8241 5.58928 13.1912 6.59749 14.1996C7.60569 15.208 8.97268 15.7754 10.3986 15.7773C11.8248 15.7757 13.192 15.2084 14.2005 14.2C15.2089 13.1915 15.7761 11.8243 15.7778 10.3981C15.7756 8.97219 15.2079 7.60532 14.1993 6.59731C13.1908 5.58929 11.8235 5.02244 10.3976 5.02106V5.02002ZM10.3976 13.6856C9.52597 13.6856 8.69004 13.3394 8.07371 12.7231C7.45738 12.1067 7.11113 11.2708 7.11113 10.3992C7.11113 9.52756 7.45738 8.69164 8.07371 8.07531C8.69004 7.45898 9.52597 7.11273 10.3976 7.11273C11.2692 7.11273 12.1051 7.45898 12.7215 8.07531C13.3378 8.69164 13.684 9.52756 13.684 10.3992C13.684 11.2708 13.3378 12.1067 12.7215 12.7231C12.1051 13.3394 11.2692 13.6856 10.3976 13.6856Z" fill="white"/>
<path d="M15.7873 6.34906C16.499 6.34906 17.0759 5.77216 17.0759 5.06051C17.0759 4.34887 16.499 3.77197 15.7873 3.77197C15.0757 3.77197 14.4988 4.34887 14.4988 5.06051C14.4988 5.77216 15.0757 6.34906 15.7873 6.34906Z" fill="white"/>
</svg>
