<svg width="21" height="17" viewBox="0 0 21 17" fill="none" xmlns="http://www.w3.org/2000/svg">
<path d="M20.8333 1.97086C20.0525 2.31188 19.2255 2.53548 18.3792 2.6344C19.2675 2.11277 19.9355 1.28555 20.2583 0.30732C19.4167 0.797245 18.4987 1.14232 17.5427 1.32815C17.1402 0.906493 16.6559 0.571265 16.1195 0.342922C15.5832 0.11458 15.0059 -0.00209099 14.4229 2.83639e-05C12.0625 2.83639e-05 10.149 1.88544 10.149 4.20836C10.149 4.53753 10.1865 4.8594 10.2594 5.16669C8.56623 5.08617 6.90845 4.65358 5.39184 3.89653C3.87523 3.13948 2.53308 2.07459 1.45104 0.76982C1.07169 1.40982 0.872307 2.14042 0.873958 2.8844C0.874684 3.5802 1.04878 4.26485 1.38051 4.87648C1.71224 5.48811 2.19115 6.00744 2.77396 6.38753C2.09634 6.36565 1.43336 6.18474 0.838542 5.8594V5.91149C0.838542 7.95107 2.3125 9.65211 4.26562 10.0396C3.89855 10.137 3.5204 10.1864 3.14063 10.1865C2.86458 10.1865 2.59688 10.1604 2.33542 10.1084C2.61467 10.9499 3.14907 11.6837 3.86439 12.2077C4.57972 12.7317 5.44046 13.0199 6.32708 13.0323C4.80632 14.2037 2.9394 14.8365 1.01979 14.8313C0.673958 14.8313 0.334375 14.8104 0 14.7729C1.95964 16.0133 4.23187 16.6701 6.55104 16.6667C14.4125 16.6667 18.7104 10.2532 18.7104 4.6917L18.6958 4.1469C19.5342 3.55698 20.2585 2.81966 20.8333 1.97086Z" fill="white"/>
</svg>
