<svg width="13" height="13" viewBox="0 0 13 13" fill="none" xmlns="http://www.w3.org/2000/svg">
<path d="M0.884248 7.38425H5.61575V12.1158C5.61575 12.5967 6.01134 13 6.5 13C6.98866 13 7.38425 12.5967 7.38425 12.1158V7.38425H12.1158C12.5967 7.38425 13 6.98866 13 6.5C13 6.01134 12.5967 5.61575 12.1158 5.61575H7.38425V0.884248C7.38425 0.403341 6.98866 0 6.5 0C6.01134 0 5.61575 0.403341 5.61575 0.884248V5.61575H0.884248C0.403341 5.61575 0 6.01134 0 6.5C0 6.98866 0.403341 7.38425 0.884248 7.38425Z" fill="white"/>
</svg>
