<svg width="52" height="52" viewBox="0 0 52 52" fill="none" xmlns="http://www.w3.org/2000/svg">
<path d="M26.0437 4.33398C21.1895 6.74156 17.3364 8.66805 6.50122 10.8351C6.50122 13.299 6.50122 21.0243 6.50122 23.5966C6.50122 38.0442 18.7818 45.2671 26.0045 47.6747C33.2272 45.2671 45.5078 38.0442 45.5078 23.5966C45.5078 20.942 45.5078 13.4225 45.5078 10.8351C34.6727 8.66805 30.8198 6.74156 26.0437 4.33398ZM33.6801 22.8188L25.012 31.487C24.6956 31.8034 24.2795 31.9637 23.8634 31.9637C23.4473 31.9637 23.0312 31.8055 22.7148 31.487L18.3808 27.1529C17.7458 26.518 17.7458 25.4886 18.3808 24.8536C19.0157 24.2187 20.0451 24.2187 20.6801 24.8536L23.8655 28.0391L31.3851 20.5195C32.02 19.8846 33.0494 19.8846 33.6844 20.5195C34.3193 21.1545 34.3151 22.1839 33.6801 22.8188Z" fill="url(#paint0_linear_394_716)"/>
<defs>
<linearGradient id="paint0_linear_394_716" x1="6.50122" y1="26.0043" x2="45.5078" y2="26.0043" gradientUnits="userSpaceOnUse">
<stop stop-color="#E0B973"/>
<stop offset="1" stop-color="#AE8741"/>
</linearGradient>
</defs>
</svg>
