<svg width="30" height="30" viewBox="0 0 30 30" fill="none" xmlns="http://www.w3.org/2000/svg">
<path d="M22.2078 10.7718L21.0783 11.7779C20.838 12.0056 20.5521 12.1194 20.2209 12.1194C19.8894 12.1194 19.5916 12.0261 19.3276 11.8396C19.087 11.6607 18.9233 11.4222 18.8363 11.1241C18.7493 10.8259 18.7596 10.5013 18.8671 10.1503L19.4081 8.4181L18.2172 7.70652C17.9355 7.5451 17.7378 7.31531 17.6241 7.01715C17.5102 6.71899 17.4927 6.41888 17.5717 6.11681C17.6508 5.82256 17.8228 5.59164 18.0877 5.42405C18.3527 5.25626 18.6569 5.17237 19.0001 5.17237H20.4235L20.8411 3.8106C20.9409 3.48324 21.118 3.21705 21.3726 3.01204C21.6274 2.80724 21.9058 2.70483 22.2078 2.70483C22.5099 2.70483 22.7883 2.80724 23.0431 3.01204C23.2977 3.21705 23.4748 3.48324 23.5746 3.8106L23.9922 5.17237H25.4156C25.751 5.17237 26.0479 5.25626 26.3064 5.42405C26.5651 5.59164 26.7443 5.82256 26.844 6.11681C26.9641 6.43163 26.9661 6.74007 26.8499 7.04214C26.7337 7.34421 26.545 7.56567 26.2839 7.70652L25.0076 8.4181L25.5486 10.1266C25.6561 10.4697 25.6684 10.7975 25.5853 11.1099C25.5022 11.4222 25.3365 11.6655 25.0881 11.8396C24.8193 12.0342 24.5204 12.1294 24.1914 12.1253C23.8624 12.1213 23.5777 12.0056 23.3374 11.7779L22.2078 10.7718ZM22.2078 8.66022C22.5416 8.66022 22.8228 8.54589 23.0514 8.31724C23.2799 8.08878 23.3941 7.80769 23.3941 7.47396C23.3941 7.14022 23.2799 6.85903 23.0514 6.63037C22.8228 6.40192 22.5416 6.28769 22.2078 6.28769C21.8741 6.28769 21.5929 6.40192 21.3643 6.63037C21.1358 6.85903 21.0216 7.14022 21.0216 7.47396C21.0216 7.80769 21.1358 8.08878 21.3643 8.31724C21.5929 8.54589 21.8741 8.66022 22.2078 8.66022ZM16.4329 21.9895C16.8583 23.0968 16.714 24.1297 15.9998 25.0881C15.2857 26.0468 14.2904 26.5261 13.0138 26.5261C12.3986 26.5261 11.8193 26.3592 11.2761 26.0255C10.7326 25.6917 10.3209 25.2449 10.0411 24.685C8.53196 24.8367 7.27054 24.4077 6.25679 23.3979C5.24284 22.3878 4.7991 21.1196 4.92556 19.5932C4.34034 19.2912 3.88724 18.8546 3.56626 18.2836C3.24507 17.7126 3.08447 17.064 3.08447 16.3379C3.08447 15.1786 3.60769 14.2608 4.65413 13.5845C5.70037 12.9084 6.75256 12.7886 7.81072 13.2252L9.58087 13.9559C9.92077 13.2631 10.4162 12.6984 11.0672 12.2619C11.7181 11.8253 12.4342 11.5865 13.2155 11.5454V9.77524C13.2155 9.56344 13.2851 9.38794 13.4244 9.24873C13.5636 9.10952 13.7392 9.03991 13.9512 9.03991C14.163 9.03991 14.3385 9.10952 14.4777 9.24873C14.6169 9.38794 14.6865 9.56344 14.6865 9.77524V11.6971C15.5107 11.86 16.2031 12.2187 16.7639 12.7733C17.3246 13.3277 17.7284 14.0604 17.9751 14.9716H19.8591C20.0709 14.9716 20.2464 15.0411 20.3856 15.1801C20.5248 15.3193 20.5944 15.4949 20.5944 15.7069C20.5944 15.9189 20.5248 16.0945 20.3856 16.2337C20.2464 16.3729 20.0709 16.4425 19.8591 16.4425H18.0889C18.0478 17.2159 17.8113 17.9281 17.3795 18.5791C16.9477 19.2299 16.3854 19.7293 15.6926 20.0772L16.4329 21.9895ZM9.51918 22.8723C9.47949 22.3171 9.50396 21.7634 9.59259 21.2113C9.68121 20.6594 9.82598 20.1169 10.0269 19.5837C9.53008 19.8099 8.9974 19.9634 8.42884 20.0442C7.86028 20.1248 7.29676 20.1326 6.73827 20.0676C6.76212 20.9093 7.03108 21.5871 7.54515 22.1012C8.05922 22.6152 8.71723 22.8723 9.51918 22.8723ZM7.3314 18.241C8.03691 18.241 8.70088 18.131 9.32332 17.911C9.94575 17.6912 10.6817 17.3029 11.5311 16.746L7.4264 15.0141C6.78258 14.7437 6.20641 14.7548 5.6979 15.0474C5.18938 15.34 4.93512 15.7955 4.93512 16.4138C4.93512 16.9881 5.14548 17.4362 5.56619 17.758C5.98691 18.08 6.57531 18.241 7.3314 18.241ZM13.0138 24.6754C13.6149 24.6754 14.0985 24.4619 14.4647 24.0348C14.831 23.6077 14.916 23.1553 14.7198 22.6777L12.9355 18.1507C12.4183 18.9037 12.028 19.6349 11.7646 20.3443C11.5012 21.0537 11.3695 21.7192 11.3695 22.3408C11.3695 23.0589 11.5155 23.6276 11.8075 24.0468C12.0993 24.4659 12.5014 24.6754 13.0138 24.6754ZM14.9666 18.3265C15.3462 18.105 15.6531 17.787 15.8873 17.3725C16.1213 16.9581 16.2383 16.5105 16.2383 16.0295C16.2383 15.2925 15.9908 14.6662 15.4959 14.1505C15.0007 13.6348 14.3909 13.3769 13.6665 13.3769C13.1619 13.3769 12.7035 13.494 12.2915 13.7282C11.8794 13.9622 11.5721 14.2754 11.3695 14.6677L13.9179 15.8019L14.9666 18.3265Z" fill="black"/>
</svg>
