<svg width="128" height="24" viewBox="0 0 128 24" fill="none" xmlns="http://www.w3.org/2000/svg">
<path d="M11.6365 0L14.249 8.26596H22.7034L15.8637 13.3746L18.4762 21.6406L11.6365 16.5319L4.79672 21.6406L7.40927 13.3746L0.56953 8.26596H9.02392L11.6365 0Z" fill="#FBB040"/>
<path d="M37.8179 0L40.4304 8.26596H48.8848L42.0451 13.3746L44.6576 21.6406L37.8179 16.5319L30.9781 21.6406L33.5907 13.3746L26.7509 8.26596H35.2053L37.8179 0Z" fill="#FBB040"/>
<path d="M64.0019 0L66.6145 8.26596H75.0689L68.2291 13.3746L70.8417 21.6406L64.0019 16.5319L57.1622 21.6406L59.7748 13.3746L52.935 8.26596H61.3894L64.0019 0Z" fill="#FBB040"/>
<path d="M90.1797 0L92.7922 8.26596H101.247L94.4069 13.3746L97.0194 21.6406L90.1797 16.5319L83.3399 21.6406L85.9525 13.3746L79.1127 8.26596H87.5671L90.1797 0Z" fill="#FBB040"/>
<path d="M116.364 0L118.976 8.26596H127.431L120.591 13.3746L123.204 21.6406L116.364 16.5319L109.524 21.6406L112.137 13.3746L105.297 8.26596H113.751L116.364 0Z" fill="#FBB040"/>
</svg>
