<svg width="30" height="30" viewBox="0 0 30 30" fill="none" xmlns="http://www.w3.org/2000/svg">
<path d="M14.805 6.42988C14.5426 6.42988 14.3229 6.34126 14.1459 6.16401C13.9686 5.98655 13.88 5.76674 13.88 5.50456V2.79984C13.88 2.53766 13.9687 2.31795 14.1462 2.1407C14.3236 1.96324 14.5434 1.87451 14.8056 1.87451C15.068 1.87451 15.2877 1.96324 15.4648 2.1407C15.642 2.31795 15.7306 2.53766 15.7306 2.79984V5.50456C15.7306 5.76674 15.6419 5.98655 15.4644 6.16401C15.287 6.34126 15.0672 6.42988 14.805 6.42988ZM20.7228 8.88786C20.5519 8.71718 20.4684 8.5057 20.4723 8.25339C20.4762 8.00109 20.5636 7.77921 20.7345 7.58777L22.616 5.66372C22.8017 5.47228 23.0221 5.37656 23.2773 5.37656C23.5325 5.37656 23.7566 5.4731 23.9497 5.66618C24.1267 5.84323 24.2152 6.05903 24.2152 6.3136C24.2152 6.56837 24.1258 6.78511 23.9469 6.9638L22.0228 8.88786C21.8441 9.06675 21.6274 9.1562 21.3726 9.1562C21.1181 9.1562 20.9014 9.06675 20.7228 8.88786ZM24.1061 15.7306C23.8439 15.7306 23.6241 15.6419 23.4466 15.4644C23.2694 15.287 23.1807 15.0672 23.1807 14.805C23.1807 14.5426 23.2694 14.3229 23.4466 14.1459C23.6241 13.9686 23.8439 13.88 24.1061 13.88H26.8108C27.073 13.88 27.2927 13.9687 27.4699 14.1462C27.6474 14.3236 27.7361 14.5434 27.7361 14.8056C27.7361 15.068 27.6474 15.2877 27.4699 15.4648C27.2927 15.642 27.073 15.7306 26.8108 15.7306H24.1061ZM14.805 27.7361C14.5426 27.7361 14.3229 27.6474 14.1459 27.4699C13.9686 27.2927 13.88 27.073 13.88 26.8108V24.1178C13.88 23.8556 13.9687 23.6359 14.1462 23.4586C14.3236 23.2812 14.5434 23.1924 14.8056 23.1924C15.068 23.1924 15.2877 23.2812 15.4648 23.4586C15.642 23.6359 15.7306 23.8556 15.7306 24.1178V26.8108C15.7306 27.073 15.6419 27.2927 15.4644 27.4699C15.287 27.6474 15.0672 27.7361 14.805 27.7361ZM7.5998 8.88786L5.66372 6.99464C5.47228 6.80978 5.37656 6.58637 5.37656 6.3244C5.37656 6.06263 5.47228 5.84241 5.66372 5.66372C5.84241 5.49284 6.06171 5.4074 6.32162 5.4074C6.58153 5.4074 6.79559 5.49284 6.9638 5.66372L8.89988 7.5998C9.07076 7.76801 9.1562 7.98207 9.1562 8.24198C9.1562 8.50189 9.07158 8.71718 8.90235 8.88786C8.7177 9.05873 8.5023 9.14417 8.25617 9.14417C8.00983 9.14417 7.79104 9.05873 7.5998 8.88786ZM22.628 23.9469L20.7345 22.0228C20.5636 21.8314 20.4762 21.6095 20.4723 21.3572C20.4684 21.1049 20.5511 20.8934 20.7203 20.7228C20.8895 20.5519 21.1011 20.4664 21.3551 20.4664C21.6088 20.4664 21.8314 20.5558 22.0228 20.7345L23.9469 22.628C24.1305 22.7987 24.2191 23.0133 24.2128 23.272C24.2064 23.5307 24.1166 23.7557 23.9435 23.9469C23.7545 24.1383 23.5301 24.2341 23.2702 24.2341C23.0101 24.2341 22.796 24.1383 22.628 23.9469ZM2.79984 15.7306C2.53766 15.7306 2.31795 15.6419 2.1407 15.4644C1.96324 15.287 1.87451 15.0672 1.87451 14.805C1.87451 14.5426 1.96324 14.3229 2.1407 14.1459C2.31795 13.9686 2.53766 13.88 2.79984 13.88H5.50456C5.76674 13.88 5.98655 13.9687 6.16401 14.1462C6.34126 14.3236 6.42988 14.5434 6.42988 14.8056C6.42988 15.068 6.34126 15.2877 6.16401 15.4648C5.98655 15.642 5.76674 15.7306 5.50456 15.7306H2.79984ZM5.67544 23.9469C5.50456 23.7682 5.41717 23.5495 5.41326 23.2908C5.40935 23.0324 5.49284 22.8177 5.66372 22.6468L7.57605 20.7345C7.75474 20.5558 7.96829 20.4664 8.21669 20.4664C8.46488 20.4664 8.68469 20.555 8.87613 20.732C9.06757 20.9251 9.16329 21.1478 9.16329 21.4001C9.16329 21.6524 9.06757 21.8742 8.87613 22.0654L6.99464 23.9469C6.8032 24.1383 6.57753 24.2341 6.31761 24.2341C6.0577 24.2341 5.84364 24.1383 5.67544 23.9469ZM14.8081 21.591C12.9239 21.591 11.3215 20.9316 10.0007 19.6127C8.67997 18.2938 8.01959 16.6922 8.01959 14.8081C8.01959 12.9239 8.67904 11.3215 9.99794 10.0007C11.3168 8.67996 12.9184 8.01959 14.8025 8.01959C16.6867 8.01959 18.2892 8.67904 19.6099 9.99794C20.9306 11.3168 21.591 12.9184 21.591 14.8025C21.591 16.6867 20.9316 18.2892 19.6127 19.6099C18.2938 20.9306 16.6922 21.591 14.8081 21.591ZM14.8053 19.7404C16.1624 19.7404 17.3242 19.2571 18.2907 18.2907C19.2571 17.3242 19.7404 16.1624 19.7404 14.8053C19.7404 13.4482 19.2571 12.2864 18.2907 11.3199C17.3242 10.3535 16.1624 9.87024 14.8053 9.87024C13.4482 9.87024 12.2864 10.3535 11.3199 11.3199C10.3535 12.2864 9.87024 13.4482 9.87024 14.8053C9.87024 16.1624 10.3535 17.3242 11.3199 18.2907C12.2864 19.2571 13.4482 19.7404 14.8053 19.7404Z" fill="#949494"/>
</svg>
