<svg width="21" height="20" viewBox="0 0 21 20" fill="none" xmlns="http://www.w3.org/2000/svg">
<path d="M20.7906 12.1802V19.8667H16.3344V12.6948C16.3344 10.8927 15.6896 9.66354 14.0771 9.66354C12.8458 9.66354 12.1125 10.4927 11.7906 11.2937C11.6729 11.5802 11.6427 11.9792 11.6427 12.3802V19.8667H7.18437C7.18437 19.8667 7.24479 7.72083 7.18437 6.46146H11.6427V8.36146L11.6135 8.40521H11.6427V8.36146C12.2344 7.45 13.2917 6.14687 15.6594 6.14687C18.5917 6.14687 20.7906 8.06354 20.7906 12.1802ZM2.52187 0C0.997917 0 0 1 0 2.31562C0 3.60208 0.96875 4.63229 2.46354 4.63229H2.49271C4.04792 4.63229 5.01354 3.60208 5.01354 2.31562C4.98646 1 4.04896 0 2.52292 0H2.52187ZM0.264583 19.8667H4.72083V6.46146H0.264583V19.8667Z" fill="white"/>
</svg>
