<svg width="45" height="53" viewBox="0 0 45 53" fill="none" xmlns="http://www.w3.org/2000/svg">
<path d="M28.9882 0C37.5733 0 44.5332 6.95988 44.5332 15.5449C44.5331 24.1299 37.5732 31.0898 28.9882 31.0898C26.2373 31.0898 23.6537 30.3738 21.4121 29.1201L3.74996 51.5059C3.03147 52.4165 1.71054 52.5727 0.79977 51.8545C-0.110887 51.136 -0.267111 49.8151 0.451137 48.9043L18.0537 26.5918C15.2076 23.7745 13.4434 19.866 13.4433 15.5449C13.4433 6.9599 20.4032 2.44653e-05 28.9882 0ZM28.9882 4.20117C22.7235 4.2012 17.6445 9.28018 17.6445 15.5449C17.6446 21.8096 22.7236 26.8877 28.9882 26.8877C35.253 26.8877 40.3319 21.8096 40.332 15.5449C40.332 9.28016 35.253 4.20117 28.9882 4.20117Z" fill="url(#paint0_linear_394_542)"/>
<defs>
<linearGradient id="paint0_linear_394_542" x1="25.2334" y1="34.8057" x2="12.7334" y2="11.8057" gradientUnits="userSpaceOnUse">
<stop stop-color="#E0B973"/>
<stop offset="1" stop-color="#AE8741"/>
</linearGradient>
</defs>
</svg>
