<svg width="45" height="53" viewBox="0 0 45 53" fill="none" xmlns="http://www.w3.org/2000/svg">
<path d="M15.5449 0C24.1298 0.000181144 31.0889 6.96 31.0889 15.5449C31.0888 19.8661 29.3248 23.7745 26.4785 26.5918L44.082 48.9043C44.8003 49.8151 44.644 51.136 43.7334 51.8545C42.8226 52.5727 41.5017 52.4165 40.7832 51.5059L23.1201 29.1201C20.8787 30.3736 18.2956 31.0898 15.5449 31.0898C6.95993 31.0898 8.21956e-05 24.1299 0 15.5449C0 6.95988 6.95988 0 15.5449 0ZM15.5449 4.20117C9.28016 4.20117 4.20117 9.28016 4.20117 15.5449C4.20125 21.8096 9.28022 26.8877 15.5449 26.8877C21.8095 26.8875 26.8876 21.8095 26.8877 15.5449C26.8877 9.28028 21.8095 4.20135 15.5449 4.20117Z" fill="url(#paint0_linear_394_539)"/>
<defs>
<linearGradient id="paint0_linear_394_539" x1="25.2334" y1="34.8057" x2="12.7334" y2="11.8057" gradientUnits="userSpaceOnUse">
<stop stop-color="#E0B973"/>
<stop offset="1" stop-color="#AE8741"/>
</linearGradient>
</defs>
</svg>
