<svg width="80" height="80" viewBox="0 0 80 80" fill="none" xmlns="http://www.w3.org/2000/svg">
<path d="M0 40C0 47.9112 2.34596 55.6448 6.74121 62.2228C11.1365 68.8008 17.3836 73.9277 24.6927 76.9552C32.0017 79.9827 40.0444 80.7748 47.8036 79.2314C55.5628 77.688 62.6902 73.8784 68.2843 68.2843C73.8784 62.6902 77.688 55.5628 79.2314 47.8036C80.7748 40.0444 79.9827 32.0017 76.9552 24.6927C73.9277 17.3836 68.8008 11.1365 62.2228 6.74121C55.6448 2.34596 47.9112 0 40 0C29.3949 0.0114703 19.2274 4.22943 11.7284 11.7284C4.22943 19.2274 0.0114703 29.3949 0 40ZM58.0467 35.2867C59.2965 36.5368 59.9986 38.2322 59.9986 40C59.9986 41.7678 59.2965 43.4631 58.0467 44.7133L43.9033 58.8567L39.19 54.1433L50 43.3333H20V36.6667H50L39.19 25.8567L43.9033 21.1433L58.0467 35.2867Z" fill="url(#paint0_linear_394_608)"/>
<defs>
<linearGradient id="paint0_linear_394_608" x1="0" y1="40" x2="80" y2="40" gradientUnits="userSpaceOnUse">
<stop stop-color="#E0B973"/>
<stop offset="1" stop-color="#AE8741"/>
</linearGradient>
</defs>
</svg>
