<svg width="53" height="53" viewBox="0 0 53 53" fill="none" xmlns="http://www.w3.org/2000/svg">
<path d="M50.5816 30.7888C50.5816 18.68 41.6308 8.65165 30.0037 6.89889C30.4963 6.18854 30.7888 5.32866 30.7888 4.3984C30.7888 1.96828 28.8205 0 26.3904 0C23.9603 0 21.992 1.96828 21.992 4.3984C21.992 5.32866 22.2845 6.18854 22.7771 6.89889C11.1499 8.65165 2.1992 18.68 2.1992 30.7888C0.985241 30.7888 0 31.7718 0 32.988C0 34.2041 0.985241 35.1872 2.1992 35.1872H8.75061C5.98622 37.3974 3.76943 40.3047 2.50049 43.7596L0.305689 49.7393C-0.112159 50.8807 0.472828 52.143 1.61201 52.5608C2.72261 52.9787 4.01794 52.4047 4.43578 51.2545L6.63058 45.2749C8.84518 39.2403 14.6533 35.185 21.0815 35.185H29.6892C31.0747 35.185 32.2007 36.3132 32.2007 37.6987C32.2007 38.939 31.2748 40.01 30.0433 40.1838L18.6932 41.8046C17.4924 41.9761 16.6567 43.0911 16.8283 44.2941C17.002 45.497 18.117 46.3327 19.3156 46.1612L30.6634 44.5404C31.9785 44.3534 33.1595 43.786 34.1228 42.9723C34.1711 42.9371 42.4753 35.7458 42.4753 35.7458C43.3594 34.9497 44.8483 35.042 45.6114 35.9657C46.4075 36.8806 46.3173 38.2792 45.4376 39.06L33.7555 49.0839C32.834 49.8734 32.7285 51.2633 33.5202 52.1848C34.3141 53.1084 35.704 53.2096 36.6211 52.4201L48.3296 42.3741C50.4012 40.5356 51.0302 37.6591 50.1483 35.1872H50.5816C51.7955 35.1872 52.7808 34.2041 52.7808 32.988C52.7808 31.7718 51.7955 30.7888 50.5816 30.7888ZM6.5976 30.7888C6.5976 19.8742 15.478 10.996 26.3904 10.996C37.3028 10.996 46.1832 19.8742 46.1832 30.7888H6.5976Z" fill="url(#paint0_linear_394_551)"/>
<defs>
<linearGradient id="paint0_linear_394_551" x1="0" y1="26.4755" x2="52.7808" y2="26.4755" gradientUnits="userSpaceOnUse">
<stop stop-color="#E0B973"/>
<stop offset="1" stop-color="#AE8741"/>
</linearGradient>
</defs>
</svg>
