<svg width="77" height="75" viewBox="0 0 77 75" fill="none" xmlns="http://www.w3.org/2000/svg">
<path d="M19.0119 56.06C22.7721 59.7559 27.5628 62.2728 32.7784 63.2925C37.9939 64.3122 43.3999 63.7888 48.3129 61.7886C53.2258 59.7884 57.425 56.4012 60.3793 52.0553C63.3337 47.7095 64.9106 42.6001 64.9106 37.3733C64.9106 32.1466 63.3337 27.0372 60.3793 22.6913C57.425 18.3454 53.2258 14.9582 48.3129 12.958C43.3999 10.9578 37.9939 10.4345 32.7784 11.4542C27.5628 12.4739 22.7721 14.9908 19.0119 18.6867C13.9767 23.6464 11.1489 30.3668 11.1489 37.3733C11.1489 44.3799 13.9767 51.1003 19.0119 56.06ZM44.361 26.7406C45.5493 26.7408 46.6888 27.2048 47.529 28.0307C48.3692 28.8565 48.8413 29.9765 48.8415 31.1444V44.359H44.361L44.361 34.2589L30.1021 48.2739L26.9335 45.1594L41.1924 31.1444L30.9165 31.1444L30.9165 26.7406L44.361 26.7406Z" fill="url(#paint0_linear_394_574)"/>
<defs>
<linearGradient id="paint0_linear_394_574" x1="19.0119" y1="56.06" x2="56.3796" y2="18.0419" gradientUnits="userSpaceOnUse">
<stop stop-color="#E0B973"/>
<stop offset="1" stop-color="#AE8741"/>
</linearGradient>
</defs>
</svg>
