<svg width="53" height="53" viewBox="0 0 53 53" fill="none" xmlns="http://www.w3.org/2000/svg">
<path d="M51.9641 10.2452C50.3012 3.46066 40.9579 -0.126683 35.2348 3.52386C32.7594 1.25722 29.5247 0 26.1683 0C22.8119 0 19.5773 1.25722 17.1019 3.52386C3.08596 -3.62249 -7.80248 16.838 7.26393 23.3393C7.6715 23.4568 8.03216 23.6988 8.29552 24.0313C8.55889 24.3638 8.71179 24.7703 8.73287 25.194V42.4899C8.73287 45.091 9.76615 47.5856 11.6054 49.4248C13.4447 51.2641 15.9392 52.2974 18.5403 52.2974H33.7963C35.0843 52.2974 36.3596 52.0437 37.5495 51.5508C38.7394 51.0579 39.8205 50.3355 40.7312 49.4248C41.6419 48.5141 42.3644 47.433 42.8572 46.2431C43.3501 45.0532 43.6038 43.7779 43.6038 42.4899V25.194C43.6249 24.7703 43.7778 24.3638 44.0411 24.0313C44.3045 23.6988 44.6651 23.4568 45.0727 23.3393C47.6532 22.4173 49.7935 20.5599 51.0697 18.135C52.3459 15.7101 52.6651 12.8943 51.9641 10.2452ZM39.2449 42.4899C39.2449 43.935 38.6709 45.3208 37.6491 46.3426C36.6273 47.3645 35.2414 47.9385 33.7963 47.9385H18.5403C17.7338 47.9214 16.9404 47.7315 16.2135 47.3816C15.4867 47.0317 14.8433 46.53 14.3269 45.9103C13.8105 45.2906 13.433 44.5673 13.2199 43.7893C13.0068 43.0112 12.9631 42.1966 13.0917 41.4002H39.2449V42.4899ZM43.6038 19.231C42.3458 19.6458 41.2492 20.4437 40.4675 21.5131C39.6859 22.5824 39.2584 23.8695 39.2449 25.194V37.0413H13.0917V25.194C13.0783 23.8695 12.6508 22.5824 11.8691 21.5131C11.0875 20.4437 9.99081 19.6458 8.73287 19.231C7.1776 18.6714 5.88906 17.5484 5.12223 16.0841C4.3554 14.6199 4.16616 12.9212 4.59195 11.3241C5.8691 6.74724 12.7191 4.83152 15.8879 8.0549C16.1153 8.28362 16.3903 8.45937 16.6933 8.56963C16.9963 8.67989 17.3199 8.72196 17.6411 8.69282C17.9622 8.66368 18.273 8.56406 18.5513 8.40105C18.8295 8.23805 19.0684 8.01568 19.2508 7.74978C21.9686 3.21656 30.355 3.21656 33.0728 7.74978C33.2555 8.01536 33.4944 8.23742 33.7727 8.4002C34.0509 8.56297 34.3616 8.66246 34.6826 8.69159C35.0036 8.72072 35.3271 8.67877 35.6301 8.56873C35.9331 8.45869 36.2081 8.28326 36.4356 8.0549C37.2948 7.32329 38.3201 6.81339 39.422 6.56985C40.5238 6.3263 41.6685 6.35653 42.756 6.65789C44.1413 6.96499 45.3898 7.71253 46.3147 8.78861C47.2396 9.86468 47.791 11.2114 47.8865 12.6271C47.982 14.0428 47.6163 15.4513 46.8442 16.6418C46.0722 17.8323 44.9353 18.7407 43.6038 19.231Z" fill="url(#paint0_linear_394_566)"/>
<defs>
<linearGradient id="paint0_linear_394_566" x1="0" y1="26.1487" x2="52.328" y2="26.1487" gradientUnits="userSpaceOnUse">
<stop stop-color="#E0B973"/>
<stop offset="1" stop-color="#AE8741"/>
</linearGradient>
</defs>
</svg>
