<svg width="75" height="75" viewBox="0 0 75 75" fill="none" xmlns="http://www.w3.org/2000/svg">
<path d="M18.6867 56.06C22.3825 59.7559 27.0914 62.2728 32.2177 63.2925C37.344 64.3122 42.6576 63.7888 47.4865 61.7886C52.3154 59.7884 56.4427 56.4012 59.3465 52.0553C62.2503 47.7095 63.8003 42.6001 63.8003 37.3733C63.8003 32.1466 62.2503 27.0372 59.3465 22.6913C56.4427 18.3454 52.3154 14.9582 47.4865 12.958C42.6576 10.9578 37.344 10.4345 32.2177 11.4542C27.0914 12.4739 22.3825 14.9908 18.6867 18.6867C13.7377 23.6464 10.9582 30.3668 10.9582 37.3733C10.9582 44.3799 13.7377 51.1003 18.6867 56.06ZM43.6022 26.7406C44.7701 26.7408 45.8902 27.2048 46.716 28.0307C47.5418 28.8565 48.0059 29.9765 48.006 31.1444V44.359L43.6022 44.359L43.6022 34.2589L29.5872 48.2739L26.4728 45.1594L40.4878 31.1444L30.3876 31.1444L30.3876 26.7406L43.6022 26.7406Z" fill="#010202"/>
</svg>
