<svg height="56" viewBox="0 0 0 56" fill="none" xmlns="http://www.w3.org/2000/svg">
<path d="M0 -2.816C-1.55523 -2.816 -2.816 -1.55523 -2.816 0C-2.816 1.55523 -1.55523 2.816 0 2.816C1.55523 2.816 2.816 1.55523 2.816 0C2.816 -1.55523 1.55523 -2.816 0 -2.816ZM0 53.1519C-1.55523 53.1519 -2.816 54.4127 -2.816 55.9679C-2.816 57.5232 -1.55523 58.7839 0 58.7839C1.55523 58.7839 2.816 57.5232 2.816 55.9679C2.816 54.4127 1.55523 53.1519 0 53.1519ZM0 0L-0.527999 0L-0.527999 3.498H0H0.527999L0.527999 0L0 0ZM0 10.494H-0.527999L-0.527999 17.49H0H0.527999L0.527999 10.494H0ZM0 24.486H-0.527999L-0.527999 31.482H0H0.527999L0.527999 24.486H0ZM0 38.478H-0.527999L-0.527999 45.4739H0H0.527999L0.527999 38.478H0ZM0 52.4699H-0.527999L-0.527999 55.9679H0H0.527999L0.527999 52.4699H0ZM0 -2.816C-1.55523 -2.816 -2.816 -1.55523 -2.816 0C-2.816 1.55523 -1.55523 2.816 0 2.816C1.55523 2.816 2.816 1.55523 2.816 0C2.816 -1.55523 1.55523 -2.816 0 -2.816ZM0 53.1519C-1.55523 53.1519 -2.816 54.4127 -2.816 55.9679C-2.816 57.5232 -1.55523 58.7839 0 58.7839C1.55523 58.7839 2.816 57.5232 2.816 55.9679C2.816 54.4127 1.55523 53.1519 0 53.1519ZM0 0L-0.527999 0L-0.527999 3.498H0H0.527999L0.527999 0L0 0ZM0 10.494H-0.527999L-0.527999 17.49H0H0.527999L0.527999 10.494H0ZM0 24.486H-0.527999L-0.527999 31.482H0H0.527999L0.527999 24.486H0ZM0 38.478H-0.527999L-0.527999 45.4739H0H0.527999L0.527999 38.478H0ZM0 52.4699H-0.527999L-0.527999 55.9679H0H0.527999L0.527999 52.4699H0Z" fill="#C39C56"/>
</svg>
