<svg width="6" height="62" viewBox="0 0 6 62" fill="none" xmlns="http://www.w3.org/2000/svg">
<path d="M2.81592 -7.87487e-05C1.26069 -7.87487e-05 -7.87487e-05 1.26069 -7.87487e-05 2.81592C-7.87487e-05 4.37115 1.26069 5.63191 2.81592 5.63191C4.37115 5.63191 5.63191 4.37115 5.63191 2.81592C5.63191 1.26069 4.37115 -7.87487e-05 2.81592 -7.87487e-05ZM2.81592 55.9679C1.26069 55.9679 -7.87487e-05 57.2286 -7.87487e-05 58.7838C-7.87487e-05 60.3391 1.26069 61.5998 2.81592 61.5998C4.37115 61.5998 5.63191 60.3391 5.63191 58.7838C5.63191 57.2286 4.37115 55.9679 2.81592 55.9679ZM2.81592 2.81592H2.28792V6.31391H2.81592H3.34392V2.81592H2.81592ZM2.81592 13.3099H2.28792L2.28792 20.3059H2.81592H3.34392L3.34392 13.3099H2.81592ZM2.81592 27.3019H2.28792V34.2979H2.81592H3.34392V27.3019H2.81592ZM2.81592 41.2939H2.28792V48.2899H2.81592H3.34392V41.2939H2.81592ZM2.81592 55.2858H2.28792V58.7838H2.81592H3.34392V55.2858H2.81592ZM2.81592 -7.87487e-05C1.26069 -7.87487e-05 -7.87487e-05 1.26069 -7.87487e-05 2.81592C-7.87487e-05 4.37115 1.26069 5.63191 2.81592 5.63191C4.37115 5.63191 5.63191 4.37115 5.63191 2.81592C5.63191 1.26069 4.37115 -7.87487e-05 2.81592 -7.87487e-05ZM2.81592 55.9679C1.26069 55.9679 -7.87487e-05 57.2286 -7.87487e-05 58.7838C-7.87487e-05 60.3391 1.26069 61.5998 2.81592 61.5998C4.37115 61.5998 5.63191 60.3391 5.63191 58.7838C5.63191 57.2286 4.37115 55.9679 2.81592 55.9679ZM2.81592 2.81592H2.28792V6.31391H2.81592H3.34392V2.81592H2.81592ZM2.81592 13.3099H2.28792L2.28792 20.3059H2.81592H3.34392L3.34392 13.3099H2.81592ZM2.81592 27.3019H2.28792V34.2979H2.81592H3.34392V27.3019H2.81592ZM2.81592 41.2939H2.28792V48.2899H2.81592H3.34392V41.2939H2.81592ZM2.81592 55.2858H2.28792V58.7838H2.81592H3.34392V55.2858H2.81592Z" fill="#C39C56"/>
</svg>
