<svg width="30" height="30" viewBox="0 0 30 30" fill="none" xmlns="http://www.w3.org/2000/svg">
<path d="M13.8798 21.287L10.1809 24.9244C10.0101 25.0951 9.79848 25.1805 9.54617 25.1805C9.29387 25.1805 9.08227 25.0848 8.9114 24.8936C8.72016 24.7227 8.62455 24.5111 8.62455 24.2588C8.62455 24.0065 8.72016 23.7847 8.9114 23.5932L13.8798 18.6251V15.7304H10.9851L5.98614 20.7296C5.81526 20.9003 5.60367 20.9856 5.35137 20.9856C5.09906 20.9856 4.87719 20.89 4.68575 20.6988C4.51508 20.5279 4.42974 20.3163 4.42974 20.064C4.42974 19.8117 4.51508 19.6001 4.68575 19.4293L8.3232 15.7304H3.67036C3.41579 15.7304 3.20307 15.6418 3.03219 15.4645C2.86132 15.2875 2.77588 15.0677 2.77588 14.8051C2.77588 14.5505 2.8645 14.3327 3.04176 14.1515C3.2188 13.9704 3.43862 13.8798 3.7012 13.8798H8.3232L4.68575 10.2118C4.51508 10.0409 4.42974 9.82932 4.42974 9.57701C4.42974 9.32471 4.52536 9.10284 4.71659 8.9114C4.88747 8.74073 5.09906 8.65539 5.35137 8.65539C5.60367 8.65539 5.82554 8.74073 6.01698 8.9114L10.9851 13.8798H13.8798V10.9851L8.88055 6.01698C8.70988 5.84611 8.62455 5.63451 8.62455 5.38221C8.62455 5.1299 8.72016 4.90803 8.9114 4.71659C9.08227 4.54592 9.29387 4.46059 9.54617 4.46059C9.79848 4.46059 10.0101 4.54592 10.1809 4.71659L13.8798 8.3232V3.7012C13.8798 3.44664 13.9684 3.22877 14.1456 3.04762C14.3227 2.86646 14.5425 2.77588 14.8051 2.77588C15.0597 2.77588 15.2775 2.86646 15.4587 3.04762C15.6398 3.22877 15.7304 3.44664 15.7304 3.7012V8.3232L19.3984 4.71659C19.5693 4.54592 19.7809 4.46059 20.0332 4.46059C20.2855 4.46059 20.5074 4.54592 20.6988 4.71659C20.8695 4.90803 20.9548 5.1299 20.9548 5.38221C20.9548 5.63451 20.8695 5.84611 20.6988 6.01698L15.7304 10.9851V13.8798H18.6251L23.5932 8.9114C23.7641 8.74073 23.9757 8.65539 24.228 8.65539C24.4803 8.65539 24.7022 8.75101 24.8936 8.94224C25.0643 9.11312 25.1496 9.32471 25.1496 9.57701C25.1496 9.82932 25.0643 10.0409 24.8936 10.2118L21.287 13.8798H25.909C26.1636 13.8798 26.3814 13.9704 26.5626 14.1515C26.7437 14.3327 26.8343 14.5505 26.8343 14.8051C26.8343 15.0677 26.7437 15.2875 26.5626 15.4645C26.3814 15.6418 26.1636 15.7304 25.909 15.7304H21.287L24.8936 19.4293C25.0643 19.6001 25.1496 19.8117 25.1496 20.064C25.1496 20.3163 25.0643 20.5279 24.8936 20.6988C24.7022 20.89 24.4803 20.9856 24.228 20.9856C23.9757 20.9856 23.7641 20.89 23.5932 20.6988L18.6251 15.7304H15.7304V18.6251L20.6988 23.6241C20.8695 23.7949 20.9548 24.0065 20.9548 24.2588C20.9548 24.5111 20.8592 24.733 20.668 24.9244C20.4971 25.0951 20.2855 25.1805 20.0332 25.1805C19.7809 25.1805 19.5693 25.0951 19.3984 24.9244L15.7304 21.287V25.9398C15.7304 26.1944 15.6398 26.4071 15.4587 26.578C15.2775 26.7489 15.0597 26.8343 14.8051 26.8343C14.5425 26.8343 14.3227 26.7457 14.1456 26.5684C13.9684 26.3914 13.8798 26.1716 13.8798 25.909V21.287Z" fill="#949494"/>
</svg>
