<svg width="12" height="12" viewBox="0 0 12 12" fill="none" xmlns="http://www.w3.org/2000/svg">
<path d="M0.238985 10.556C-0.0734518 10.8684 -0.0883298 11.4263 0.246424 11.7536C0.573739 12.0809 1.13166 12.0734 1.4441 11.761L5.99675 7.2013L10.5568 11.761C10.8767 12.0809 11.4272 12.0809 11.7545 11.7536C12.0744 11.4189 12.0818 10.8759 11.7545 10.556L7.20186 5.99628L11.7545 1.44399C12.0818 1.12413 12.0818 0.573694 11.7545 0.246405C11.4198 -0.0734461 10.8767 -0.0808845 10.5568 0.238966L5.99675 4.7987L1.4441 0.238966C1.13166 -0.0734461 0.5663 -0.0883229 0.246424 0.246405C-0.0808908 0.573694 -0.0734518 1.13157 0.238985 1.44399L4.79908 5.99628L0.238985 10.556Z" fill="white"/>
</svg>
