<svg width="21" height="15" viewBox="0 0 21 15" fill="none" xmlns="http://www.w3.org/2000/svg">
<path d="M16.4708 0.00104167H4.31771C1.93229 0.00104167 0 1.9125 0 4.27083V10.2792C0 12.6375 1.93333 14.55 4.31771 14.55H16.4708C18.8562 14.55 20.7885 12.6375 20.7885 10.2792V4.27083C20.7885 1.9125 18.8552 0 16.4708 0V0.00104167ZM13.551 7.56667L7.86667 10.249C7.832 10.2657 7.79366 10.2733 7.75524 10.2712C7.71682 10.2691 7.67955 10.2573 7.64691 10.2369C7.61427 10.2166 7.58731 10.1883 7.56854 10.1547C7.54978 10.1211 7.53981 10.0833 7.53958 10.0448V4.51458C7.54028 4.47591 7.55075 4.43804 7.57002 4.4045C7.5893 4.37097 7.61675 4.34286 7.64981 4.32279C7.68288 4.30272 7.72049 4.29135 7.75913 4.28973C7.79778 4.28811 7.83621 4.29631 7.87083 4.31354L13.5562 7.1625C13.5941 7.18139 13.6259 7.21057 13.6479 7.24669C13.67 7.28282 13.6814 7.32443 13.6808 7.36674C13.6803 7.40905 13.6678 7.45035 13.6448 7.4859C13.6219 7.52145 13.5894 7.5498 13.551 7.56771V7.56667Z" fill="white"/>
</svg>
